<!-- icon666.com - MILLIONS vector ICONS FREE --><svg id="Layer_3" enable-background="new 0 0 64 64" viewBox="0 0 64 64" xmlns="http://www.w3.org/2000/svg"><g><path d="m2.216 32.843c4.521 5.525 10.264 9.86 16.77 12.688-4.029.833-7.771 2.839-10.693 5.761-.265.265-.359.655-.245 1.012.114.356.418.62.788.681l4.542.757c1.02.172 2.062.258 3.168.258 2.708 0 5.417-.564 7.899-1.638-.944 2.075-1.446 4.349-1.446 6.636l.001 1.002c0 .369.203.708.528.881s.719.154 1.026-.05l2.279-1.52c1.592-1.062 2.996-2.377 4.167-3.877v7.566h2v-7.565c1.171 1.501 2.574 2.816 4.167 3.877l2.279 1.52c.167.111.36.168.554.168.162 0 .324-.039.472-.118.325-.174.528-.513.528-.882v-1.002c0-.506-.034-1.011-.082-1.514 2.138 3.313 5.854 5.516 10.082 5.516 6.617 0 12-5.383 12-12 0-5.275-3.426-9.757-8.167-11.361 2.551-2.01 4.891-4.279 6.951-6.796l.99-1.21c.255-.312.298-.746.109-1.102s-.58-.56-.974-.527c-5.912.538-11.624 2.351-16.742 5.292 5.142-7.039 8.25-15.519 8.83-24.23.025-.369-.156-.722-.471-.917-.314-.194-.71-.2-1.031-.014-6.589 3.845-11.712 9.875-14.495 16.927v-.062c0-8.759-1.708-17.3-5.077-25.385-.155-.372-.519-.615-.923-.615s-.768.243-.923.615c-3.369 8.085-5.077 16.626-5.077 25.385v.062c-2.783-7.051-7.906-13.081-14.496-16.925-.318-.186-.716-.181-1.031.014-.314.195-.496.547-.471.917.581 8.711 3.688 17.19 8.83 24.23-5.119-2.942-10.83-4.755-16.742-5.292-.398-.031-.785.171-.974.527s-.146.791.109 1.102zm58.784 18.157c0 5.514-4.486 10-10 10s-10-4.486-10-10 4.486-10 10-10 10 4.486 10 10zm-39.656-11.695 2.067 1.503c.411.299.979.243 1.323-.13s.354-.944.024-1.329l-2.217-2.586c-5.737-6.693-9.377-15.096-10.367-23.847 6.535 4.387 11.308 11.141 13.224 18.804l.63 2.522c.123.49.597.806 1.092.75.504-.061.88-.487.88-.992v-7c0-7.653 1.344-15.133 4-22.273 2.656 7.14 4 14.621 4 22.273v7c0 .505.376.931.878.993.491.057.97-.26 1.092-.75l.63-2.522c1.916-7.663 6.688-14.417 13.224-18.804-.989 8.751-4.63 17.154-10.367 23.847l-2.217 2.586c-.33.385-.32.957.024 1.329.344.373.912.43 1.323.13l2.067-1.503c5.029-3.657 10.854-6.056 16.976-7.007-2.172 2.539-4.642 4.808-7.345 6.773-.422-.046-.85-.072-1.285-.072-6.249 0-11.391 4.803-11.945 10.91l-1.608-.804c-.416-.208-.918-.103-1.215.254-.297.356-.31.87-.032 1.241 1.629 2.169 2.598 4.808 2.772 7.512l-.696-.464c-2.29-1.526-4.151-3.634-5.381-6.096-.339-.678-1.45-.678-1.789 0-1.23 2.461-3.091 4.569-5.381 6.096l-.696.464c.174-2.705 1.143-5.343 2.772-7.512.278-.371.265-.885-.032-1.241s-.8-.462-1.215-.254l-2.023 1.012c-3.266 1.633-7.115 2.272-10.823 1.654l-2.495-.416c2.833-2.286 6.292-3.738 9.926-4.142l1.972-.219c.467-.052.834-.421.884-.888.049-.467-.233-.906-.678-1.054-7.374-2.458-13.906-6.858-18.949-12.753 6.122.95 11.947 3.348 16.976 7.005z"></path><path d="m47 51c0 2.206 1.794 4 4 4s4-1.794 4-4-1.794-4-4-4-4 1.794-4 4zm6 0c0 1.103-.897 2-2 2s-2-.897-2-2 .897-2 2-2 2 .897 2 2z"></path><path d="m50 43h2v3h-2z"></path><path d="m56 50h3v2h-3z"></path><path d="m43 50h3v2h-3z"></path><path d="m50 56h2v3h-2z"></path><path d="m54.586 45h2.828v2h-2.828z" transform="matrix(.707 -.707 .707 .707 -16.125 53.071)"></path><path d="m45 44.586h2v2.828h-2z" transform="matrix(.707 -.707 .707 .707 -19.054 46)"></path><path d="m55 54.586h2v2.828h-2z" transform="matrix(.707 -.707 .707 .707 -23.196 56)"></path><path d="m44.586 55h2.828v2h-2.828z" transform="matrix(.707 -.707 .707 .707 -26.125 48.929)"></path></g></svg>