<!-- icon666.com - MILLIONS vector ICONS FREE --><svg id="Layer_3" enable-background="new 0 0 64 64" viewBox="0 0 64 64" xmlns="http://www.w3.org/2000/svg"><g><path d="m51 41c-5.514 0-10 4.486-10 10s4.486 10 10 10 10-4.486 10-10-4.486-10-10-10zm3 5h2v2h-2zm2.692 10.622c-1.509 1.533-3.531 2.378-5.692 2.378-4.411 0-8-3.589-8-8s3.589-8 8-8c.384 0 .767.03 1.17.091.372.057.68.317.798.673.119.356.027.749-.236 1.017-1.117 1.136-1.732 2.634-1.732 4.219 0 2.959 2.203 5.508 5.123 5.93.373.054.684.313.805.67.12.358.029.753-.236 1.022zm.308-4.622v-2h2v2z"></path><path d="m49 49c0-1.393.356-2.735 1.024-3.921-2.846.467-5.024 2.944-5.024 5.921 0 3.309 2.691 6 6 6 .989 0 1.938-.235 2.785-.68-2.833-1.25-4.785-4.104-4.785-7.32z"></path><path d="m37.625 49.981-.25-.2c-.387-.31-.488-.856-.239-1.285.249-.427.774-.608 1.235-.425l.911.364c.947-4.328 4.234-7.781 8.464-8.976 5.337-4.682 9.648-10.525 12.55-17.004l-1.706.427c-7.902 1.976-15.124 6.064-20.884 11.824-.332.333-.851.389-1.249.134-.396-.255-.56-.751-.395-1.192l1.575-4.201c.905-2.406 1.363-4.932 1.363-7.505 0-3.714-.974-7.381-2.816-10.605l-4.184-7.321-4.183 7.321c-1.842 3.224-2.817 6.892-2.817 10.605 0 2.573.458 5.098 1.361 7.506l1.575 4.201c.165.441 0 .937-.395 1.192-.396.256-.916.199-1.249-.134-5.76-5.76-12.982-9.848-20.884-11.824l-1.708-.427c3.933 8.811 10.272 16.195 18.429 21.439l.41.264c.352.226.525.646.437 1.054-.089.408-.422.718-.835.777-4.386.627-8.852.965-13.29 1.006l2.124 1.18c3.769 2.093 8.425 2.387 12.424.788l2.229-.892c.461-.184.986-.002 1.235.425.25.428.148.975-.239 1.285l-.25.2c-2.421 1.937-4.162 4.56-5.01 7.51l2.575-.858c2.808-.936 5.239-2.66 7.06-4.985v11.351h2v-11.353c1.821 2.325 4.252 4.05 7.06 4.985l.427.142c-.907-1.644-1.431-3.523-1.474-5.519-.436-.451-.897-.882-1.387-1.274z"></path></g></svg>