<!-- icon666.com - MILLIONS vector ICONS FREE --><svg viewBox="0 0 56 56" xmlns="http://www.w3.org/2000/svg"><g id="Page-1" fill="none" fill-rule="evenodd"><g id="053---Hydro-Car" fill="rgb(0,0,0)" fill-rule="nonzero"><path id="Shape" d="m1.5 32h1.2c.1-.006.2-.03.3-.03h.308l1.066-2.97h-2.874c-.82842712 0-1.5.6715729-1.5 1.5s.67157288 1.5 1.5 1.5z"></path><path id="Shape" d="m42.418.146c-.1194757-.09332959-.2663985-.14464713-.418-.146-.1467471-.00027018-.2893472.04867158-.405.139-1.66 1.3-16.145 13.03-13.194 25.375.6349998 2.593037 2.0245562 4.9395881 3.993 6.743l.012.012.019.02.01.009c2.0024266 1.8436758 4.4996102 3.0625516 7.185 3.507 4.1092746.693214 8.3153952-.4570686 11.5-3.145 3.0943679-2.6224068 4.8789911-6.4728776 4.88-10.529 0-11.057-12.192-20.899-13.582-21.985zm-2.318 33.699c-.0545971.0001236-.1091127-.0042243-.163-.013-4.6610364-.7572515-8.4290973-4.2067907-9.594-8.783-.0886244-.3494666.0177242-.7195836.2783439-.9686991.2606198-.2491156.6351578-.3386581.9802703-.2343577s.6073642.3862944.6863858.7380568c.9716564 3.7953129 4.102773 6.6522456 7.971 7.273.5168703.0807658.8841388.5462587.8424311 1.0677359-.0417077.5214773-.4782942.922678-1.0014311.9202641z"></path><path id="Shape" d="m11.773 41.906-6.468-.906c-.01398358-.0009588-.02801642-.0009588-.042 0-.14557381.0010987-.26300415.119422-.263.265v2.47c0 .0702824.02791956.1376862.0776167.1873833s.11710093.0776167.1873833.0776167h6.47c.1463555 0 .265-.1186445.265-.265v-1.567c-.0009773-.1312593-.0972179-.2423388-.227-.262z"></path><path id="Shape" d="m34 55c0 .5522847.4477153 1 1 1h3c.5522847 0 1-.4477153 1-1v-4h-5z"></path><path id="Shape" d="m35.738 41c-.0133149-.0009927-.0266851-.0009927-.04 0l-6.474.9c-.1285911.0209812-.2232605.1317106-.224.262v1.567c0 .1463555.1186445.265.265.265h6.47c.144044.0000369.2617386-.1149929.265-.259v-2.47c.0000093-.1451918-.1168175-.2633563-.262-.265z"></path><path id="Shape" d="m31.351 34h-28.651c-1.52883516.1503814-2.69557302 1.433793-2.7 2.97v11.03c0 .5522847.44771525 1 1 1h39c.5522847 0 1-.4477153 1-1v-10.043c-.571372-.0296666-1.1408104-.0890805-1.706-.178-2.9495376-.4902647-5.7018781-1.7997315-7.943-3.779zm-17.351 9.735c-.0011027 1.2504679-1.0145321 2.2638973-2.265 2.265h-6.47c-1.25046792-.0011027-2.26389729-1.0145321-2.265-2.265v-2.47c.00016676-.6563595.2849234-1.2804003.78059153-1.7106572.49566813-.4302568 1.15354426-.6244533 1.80340847-.5323428l6.468.9c1.1163823.1621452 1.9453335 1.1179072 1.948 2.246zm10 2.265h-7c-.5522847 0-1-.4477153-1-1s.4477153-1 1-1h7c.5522847 0 1 .4477153 1 1s-.4477153 1-1 1zm0-4h-7c-.5522847 0-1-.4477153-1-1s.4477153-1 1-1h7c.5522847 0 1 .4477153 1 1s-.4477153 1-1 1zm14 1.735c-.0011027 1.2504679-1.0145321 2.2638973-2.265 2.265h-6.47c-1.2504679-.0011027-2.2638973-1.0145321-2.265-2.265v-1.567c.0044239-1.1255896.8313052-2.0787351 1.945-2.242l6.473-.9c.6488577-.0913794 1.3055042.1025929 1.8005574.5318818.4950531.4292889.7800379 1.051859.7814426 1.7071182z"></path><path id="Shape" d="m26.452 25.979c-.5381245-2.2891726-.6017651-4.6642951-.187-6.979h-12.405c-2.3669916-.0052913-4.45677624 1.5437515-5.14 3.81l-1.994 5.554c-.005.013-.008.026-.013.038l-1.281 3.568h23.974c-1.4136158-1.7552377-2.4222865-3.8009202-2.954-5.991zm-16.252-.379c-.33137085-.4418278-.2418278-1.0686292.2-1.4l4-3c.2858125-.2143594.6642735-.2599565.9928203-.1196153.3285469.1403412.5572657.4452995.6000001.8.0427344.3547006-.1070079.705256-.3928204.9196153l-4 3c-.4418278.3313708-1.0686292.2418278-1.4-.2zm10.4-1.8-8 6c-.4418278.3313708-1.0686292.2418278-1.4-.2s-.2418278-1.0686292.2-1.4l8-6c.2858125-.2143594.6642734-.2599564.9928203-.1196152.3285469.1403411.5572656.4452994.6.8.0427344.3547005-.1070078.7052558-.3928203.9196152z"></path><path id="Shape" d="m2 55c0 .5522847.44771525 1 1 1h3c.55228475 0 1-.4477153 1-1v-4h-5z"></path></g></g></svg>